<svg width="24" height="24" viewBox="0 0 24 24" fill="none" xmlns="http://www.w3.org/2000/svg">
  <path d="M22 16.92V19.92C22.0011 20.1985 21.9441 20.4742 21.8325 20.7293C21.7209 20.9845 21.5573 21.2136 21.3521 21.4019C21.1468 21.5901 20.9046 21.7335 20.6407 21.8227C20.3769 21.9119 20.0973 21.9451 19.82 21.92C16.7428 21.5856 13.787 20.5341 11.19 18.85C8.77382 17.3147 6.72533 15.2662 5.19 12.85C3.49997 10.2412 2.44824 7.27099 2.12 4.18C2.09501 3.90347 2.12788 3.62476 2.21649 3.36162C2.3051 3.09849 2.44748 2.85669 2.63519 2.65162C2.8229 2.44655 3.05131 2.28271 3.30613 2.17052C3.56095 2.05833 3.83581 2.00026 4.11 2H7.11C7.59531 1.99522 8.06711 2.16708 8.43849 2.48353C8.80988 2.79999 9.05818 3.23945 9.14 3.72C9.29355 4.68007 9.58194 5.61909 10 6.5C10.1872 6.96894 10.2435 7.48772 10.1626 7.9929C10.0817 8.49807 9.86721 8.96943 9.54 9.35L8.62 10.27C10.1734 12.786 12.214 14.8266 14.73 16.38L15.65 15.46C16.0306 15.1328 16.5019 14.9183 17.0071 14.8374C17.5123 14.7565 18.0311 14.8128 18.5 15L20.28 15.86C20.7658 15.9408 21.2094 16.1901 21.5265 16.5644C21.8437 16.9388 22.0122 17.4147 22 17.9V16.92Z" fill="white"/>
</svg>
