<svg width="24" height="24" viewBox="0 0 24 24" fill="none" xmlns="http://www.w3.org/2000/svg">
  <path d="M17.472 14.382C17.278 14.284 16.342 13.829 16.166 13.767C15.99 13.704 15.862 13.673 15.733 13.868C15.605 14.063 15.267 14.483 15.157 14.611C15.048 14.74 14.938 14.757 14.744 14.659C14.55 14.561 13.916 14.349 13.166 13.687C12.583 13.172 12.197 12.542 12.088 12.347C11.978 12.152 12.077 12.048 12.175 11.951C12.263 11.863 12.369 11.724 12.467 11.614C12.565 11.505 12.599 11.425 12.662 11.297C12.725 11.168 12.692 11.059 12.643 10.961C12.594 10.863 12.208 9.925 12.05 9.536C11.897 9.162 11.74 9.209 11.623 9.202C11.512 9.196 11.384 9.194 11.256 9.194C11.128 9.194 10.915 9.243 10.739 9.438C10.563 9.633 10.072 10.089 10.072 11.027C10.072 11.965 10.756 12.869 10.854 12.997C10.952 13.126 12.207 15.132 14.177 15.958C14.634 16.155 14.988 16.275 15.263 16.363C15.722 16.509 16.14 16.489 16.472 16.438C16.84 16.382 17.572 15.975 17.73 15.525C17.888 15.076 17.888 14.696 17.839 14.611C17.79 14.527 17.666 14.482 17.472 14.382Z" fill="white"/>
  <path d="M12.04 2C6.58 2 2.13 6.45 2.13 11.91C2.13 13.66 2.59 15.36 3.45 16.86L2.05 22L7.3 20.62C8.75 21.41 10.38 21.83 12.04 21.83C17.5 21.83 21.95 17.38 21.95 11.92C21.95 9.27 20.92 6.78 19.05 4.91C17.18 3.04 14.69 2.01 12.04 2.01V2ZM12.05 20.15C10.59 20.15 9.16 19.75 7.92 19L7.58 18.82L4.85 19.53L5.57 16.85L5.38 16.5C4.57 15.25 4.14 13.79 4.14 12.27C4.14 7.58 7.85 3.87 12.54 3.87C14.83 3.87 16.98 4.72 18.63 6.37C20.28 8.02 21.13 10.17 21.13 12.46C21.13 17.15 17.42 20.86 12.73 20.86L12.05 20.15Z" fill="white"/>
</svg>
